<?xml version="1.0" encoding="UTF-8" standalone="no"?>
<!DOCTYPE svg PUBLIC "-//W3C//DTD SVG 1.1//EN" "http://www.w3.org/Graphics/SVG/1.1/DTD/svg11.dtd">
<svg version="1.1" xmlns="http://www.w3.org/2000/svg" xmlns:xlink="http://www.w3.org/1999/xlink" preserveAspectRatio="xMidYMid meet" viewBox="0 0 640 640" width="640" height="640"><defs><path d="M383.36 290C383.36 342.43 341.81 385 290.64 385C239.47 385 197.92 342.43 197.92 290C197.92 237.57 239.47 195 290.64 195C341.81 195 383.36 237.57 383.36 290Z" id="g6UvEfCRQ"></path><path d="M369.9 362.77C369.9 419.49 331.4 465.53 283.98 465.53C236.56 465.53 198.06 419.49 198.06 362.77C198.06 306.05 236.56 260 283.98 260C331.4 260 369.9 306.05 369.9 362.77Z" id="b1cs6l5JaD"></path><path d="M213.24 346.8C213.24 357.84 207.3 366.8 200 366.8C192.7 366.8 186.76 357.84 186.76 346.8C186.76 335.77 192.7 326.8 200 326.8C207.3 326.8 213.24 335.77 213.24 346.8Z" id="af2tipAzy"></path><path d="M210 325.17C210 331.73 206.18 337.06 201.47 337.06C196.76 337.06 192.94 331.73 192.94 325.17C192.94 318.6 196.76 313.27 201.47 313.27C206.18 313.27 210 318.6 210 325.17Z" id="cnrtZMr4d"></path><path d="M209.53 300.37L194.62 325.35L189.78 305.09L209.53 300.37Z" id="aE5sgX6Bc"></path><path d="M384.9 337.44C381.52 347.94 374.04 354.95 368.21 353.07C362.38 351.19 360.4 341.14 363.78 330.63C367.16 320.13 374.64 313.12 380.47 315C386.3 316.88 388.29 326.93 384.9 337.44Z" id="aGd7HSdnA"></path><path d="M381.95 333.12L361.9 301.97L390 313.51L381.95 333.12Z" id="g5K80KYEFI"></path><path d="M214.23 484.65L206.27 490.85L206.27 501.46L212.46 509.43L220.42 517.39L224.85 527.13L222.19 517.39L232.81 523.59L244.32 527.13L259.36 526.24L270.87 528.9L281.49 526.24L291.22 523.59L300.96 520.93L312.46 517.39L324.85 515.62L333.7 510.31L344.32 506.77L354.94 501.46L364.67 498.81L368.21 489.08L361.13 482L353.17 471.38L347.86 459.87L345.2 450.14L346.09 435.98L332.81 431.55L322.19 434.21L304.5 435.09L282.37 433.32L271.75 431.55L255.82 429.78L243.43 430.67L232.81 432.44L228.39 442.17L229.27 452.79L229.27 463.41L226.62 474.03L219.54 481.11L211.58 487.31" id="b4vhKGMPO1"></path><path d="M350 82.72C350 108.81 320.18 130 283.44 130C246.71 130 216.89 108.81 216.89 82.72C216.89 56.62 246.71 35.44 283.44 35.44C320.18 35.44 350 56.62 350 82.72Z" id="b2GfcfAous"></path><path d="M290 121.94C290 150.61 262.16 173.88 227.86 173.88C193.56 173.88 165.72 150.61 165.72 121.94C165.72 93.27 193.56 70 227.86 70C262.16 70 290 93.27 290 121.94Z" id="b22Cj96Jqe"></path><path d="M397.39 90C397.39 117.33 373.33 139.51 343.69 139.51C314.06 139.51 290 117.33 290 90C290 62.67 314.06 40.49 343.69 40.49C373.33 40.49 397.39 62.67 397.39 90Z" id="c3ZgnAvLiz"></path><path d="M356.6 135.06C356.6 152.48 335.72 166.62 310 166.62C284.28 166.62 263.4 152.48 263.4 135.06C263.4 117.65 284.28 103.51 310 103.51C335.72 103.51 356.6 117.65 356.6 135.06Z" id="a51SMCr2Qd"></path><path d="M200.49 140.48C200.49 164.8 189.17 184.55 175.24 184.55C161.31 184.55 150 164.8 150 140.48C150 116.15 161.31 96.41 175.24 96.41C189.17 96.41 200.49 116.15 200.49 140.48Z" id="d7boeledwt"></path><path d="M230 193.13C230 213.48 210.97 230 187.52 230C164.08 230 145.05 213.48 145.05 193.13C145.05 172.78 164.08 156.25 187.52 156.25C210.97 156.25 230 172.78 230 193.13Z" id="b1ilVxFppn"></path><path d="M437.92 116.21C452.07 147.86 451.04 179.14 435.63 186.03C420.22 192.92 396.23 172.82 382.08 141.17C367.93 109.53 368.96 78.24 384.37 71.35C399.78 64.46 423.77 84.56 437.92 116.21Z" id="aL5ECS1x6"></path><path d="M413.11 163.41C413.11 183.6 395.28 200 373.31 200C351.34 200 333.5 183.6 333.5 163.41C333.5 143.21 351.34 126.81 373.31 126.81C395.28 126.81 413.11 143.21 413.11 163.41Z" id="askeUQgzH"></path><path d="M448.01 205.97C448.01 223.52 430.98 237.77 410 237.77C389.02 237.77 371.99 223.52 371.99 205.97C371.99 188.42 389.02 174.17 410 174.17C430.98 174.17 448.01 188.42 448.01 205.97Z" id="am5YRL4XO"></path><path d="M420.48 226.62C433.5 231.57 439.38 247.94 433.59 263.13C427.81 278.33 412.54 286.65 399.52 281.69C386.5 276.74 380.62 260.38 386.41 245.18C392.19 229.98 407.46 221.67 420.48 226.62Z" id="avxLUbkiQ"></path><path d="M182.05 245C182.05 258.8 182.05 270 182.05 270C182.05 270 182.05 258.8 182.05 245C182.05 231.2 182.05 220 182.05 220C182.05 225 182.05 231.2 182.05 245Z" id="a4CQ2TGH9a"></path><path d="M200 230.87C200 242.39 190.28 251.75 178.3 251.75C166.33 251.75 156.61 242.39 156.61 230.87C156.61 219.35 166.33 210 178.3 210C190.28 210 200 219.35 200 230.87Z" id="nhMgCUyA"></path><path d="M206.32 245.83C206.32 257.84 196.96 267.59 185.44 267.59C173.92 267.59 164.57 257.84 164.57 245.83C164.57 233.83 173.92 224.08 185.44 224.08C196.96 224.08 206.32 233.83 206.32 245.83Z" id="avtWQvOY3"></path><path d="M350 168.78C350 179.14 324.38 187.56 292.82 187.56C261.26 187.56 235.64 179.14 235.64 168.78C235.64 158.41 261.26 150 292.82 150C324.38 150 350 158.41 350 168.78Z" id="b4b2H8JFI"></path><path d="M405.84 209.22C400.09 221.92 376.48 223.65 353.15 213.09C329.81 202.53 315.53 183.65 321.27 170.95C327.01 158.26 350.62 156.53 373.96 167.09C397.3 177.65 411.58 196.53 405.84 209.22Z" id="a87TaeTs5"></path><path d="M289.85 169.59C291.91 178.24 272.62 190.27 246.79 196.43C220.96 202.59 198.32 200.58 196.26 191.93C194.19 183.28 213.49 171.26 239.31 165.09C265.14 158.93 287.79 160.95 289.85 169.59Z" id="a58cQ6qbzx"></path><path d="M408.02 244.08C398.52 251.93 373.77 237.67 352.78 212.26C331.8 186.85 322.48 159.85 331.98 152.01C341.48 144.16 366.23 158.42 387.22 183.82C408.2 209.23 417.52 236.23 408.02 244.08Z" id="b25YiK570Q"></path><path d="M193.7 293.8L182.05 245.26L240 156.91L384.96 214.19L397.58 277.3L384.96 304.48L387.87 292.83L384.96 260L373.31 232.64L344.18 205.45L300 190L264.57 190L217.97 222.93L194.67 267.59L193.7 293.8Z" id="h4L89T8J9Q"></path><path d="M353.89 170.5C353.89 183.9 337.79 194.77 317.97 194.77C298.14 194.77 282.05 183.9 282.05 170.5C282.05 157.1 298.14 146.23 317.97 146.23C337.79 146.23 353.89 157.1 353.89 170.5Z" id="c2TqZ9pLfi"></path><path d="M198.55 260.79L194.67 271.47L194.67 282.15L197.58 291.86" id="a4B9RVxEbB"></path><path d="M409.36 77.27C409.36 86.8 399.11 94.54 386.49 94.54C373.87 94.54 363.62 86.8 363.62 77.27C363.62 67.74 373.87 60 386.49 60C399.11 60 409.36 67.74 409.36 77.27Z" id="h8KcU22a5"></path><path d="M442.77 114.04C442.77 131.07 428.7 144.89 411.38 144.89C394.06 144.89 380 131.07 380 114.04C380 97.02 394.06 83.19 411.38 83.19C428.7 83.19 442.77 97.02 442.77 114.04Z" id="b2dtr5fAbP"></path><path d="M455.53 164.04C455.53 178.8 446.03 190.78 434.33 190.78C422.63 190.78 413.13 178.8 413.13 164.04C413.13 149.28 422.63 137.3 434.33 137.3C446.03 137.3 455.53 149.28 455.53 164.04Z" id="afKhdRx45"></path><path d="M391.7 274.36C391.7 321.63 347.13 360 292.23 360C237.34 360 192.77 321.63 192.77 274.36C192.77 227.1 237.34 188.72 292.23 188.72C347.13 188.72 391.7 227.1 391.7 274.36Z" id="b1VfR4Lk7v"></path><path d="M280.77 185.16C269.59 191.48 260.04 195.77 259.46 194.74C258.88 193.71 267.48 187.75 278.66 181.43C289.84 175.11 299.39 170.81 299.97 171.84C300.55 172.87 291.95 178.84 280.77 185.16Z" id="a3gBSYPC5U"></path></defs><g><g><g><use xlink:href="#g6UvEfCRQ" opacity="1" fill="#845751" fill-opacity="1"></use></g><g><use xlink:href="#b1cs6l5JaD" opacity="1" fill="#845751" fill-opacity="1"></use></g><g><use xlink:href="#af2tipAzy" opacity="1" fill="#845751" fill-opacity="1"></use></g><g><use xlink:href="#cnrtZMr4d" opacity="1" fill="#845751" fill-opacity="1"></use></g><g><use xlink:href="#aE5sgX6Bc" opacity="1" fill="#845751" fill-opacity="1"></use></g><g><use xlink:href="#aGd7HSdnA" opacity="1" fill="#845751" fill-opacity="1"></use></g><g><use xlink:href="#g5K80KYEFI" opacity="1" fill="#845751" fill-opacity="1"></use></g><g><use xlink:href="#b4vhKGMPO1" opacity="1" fill="#845751" fill-opacity="1"></use><g><use xlink:href="#b4vhKGMPO1" opacity="1" fill-opacity="0" stroke="#845751" stroke-width="1" stroke-opacity="1"></use></g></g><g><use xlink:href="#b2GfcfAous" opacity="1" fill="#000000" fill-opacity="1"></use></g><g><use xlink:href="#b22Cj96Jqe" opacity="1" fill="#030300" fill-opacity="1"></use></g><g><use xlink:href="#c3ZgnAvLiz" opacity="1" fill="#030300" fill-opacity="1"></use></g><g><use xlink:href="#a51SMCr2Qd" opacity="1" fill="#030300" fill-opacity="1"></use></g><g><use xlink:href="#d7boeledwt" opacity="1" fill="#030300" fill-opacity="1"></use></g><g><use xlink:href="#b1ilVxFppn" opacity="1" fill="#030300" fill-opacity="1"></use></g><g><use xlink:href="#aL5ECS1x6" opacity="1" fill="#030300" fill-opacity="1"></use></g><g><use xlink:href="#askeUQgzH" opacity="1" fill="#030300" fill-opacity="1"></use></g><g><use xlink:href="#am5YRL4XO" opacity="1" fill="#030300" fill-opacity="1"></use></g><g><use xlink:href="#avxLUbkiQ" opacity="1" fill="#030300" fill-opacity="1"></use></g><g><use xlink:href="#a4CQ2TGH9a" opacity="1" fill="#030300" fill-opacity="1"></use></g><g><use xlink:href="#nhMgCUyA" opacity="1" fill="#030300" fill-opacity="1"></use></g><g><use xlink:href="#avtWQvOY3" opacity="1" fill="#030300" fill-opacity="1"></use></g><g><use xlink:href="#b4b2H8JFI" opacity="1" fill="#030300" fill-opacity="1"></use></g><g><use xlink:href="#a87TaeTs5" opacity="1" fill="#030300" fill-opacity="1"></use></g><g><use xlink:href="#a58cQ6qbzx" opacity="1" fill="#030300" fill-opacity="1"></use></g><g><use xlink:href="#b25YiK570Q" opacity="1" fill="#030300" fill-opacity="1"></use></g><g><use xlink:href="#h4L89T8J9Q" opacity="1" fill="#030300" fill-opacity="1"></use><g><use xlink:href="#h4L89T8J9Q" opacity="1" fill-opacity="0" stroke="#030300" stroke-width="1" stroke-opacity="1"></use></g></g><g><use xlink:href="#c2TqZ9pLfi" opacity="1" fill="#030300" fill-opacity="1"></use></g><g><use xlink:href="#a4B9RVxEbB" opacity="1" fill="#030300" fill-opacity="1"></use><g><use xlink:href="#a4B9RVxEbB" opacity="1" fill-opacity="0" stroke="#030300" stroke-width="1" stroke-opacity="1"></use></g></g><g><use xlink:href="#h8KcU22a5" opacity="1" fill="#030300" fill-opacity="1"></use></g><g><use xlink:href="#b2dtr5fAbP" opacity="1" fill="#030300" fill-opacity="1"></use></g><g><use xlink:href="#afKhdRx45" opacity="1" fill="#030300" fill-opacity="1"></use></g><g><use xlink:href="#b1VfR4Lk7v" opacity="1" fill="#845751" fill-opacity="1"></use></g><g><use xlink:href="#a3gBSYPC5U" opacity="1" fill="#000002" fill-opacity="1"></use></g></g></g></svg>